{"asset":{"version":"2.0","generator":"Voxel Frontier Enterprise Character Pack Generator"},"scene":0,"scenes":[{"nodes":[0]}],"nodes":[{"name":"frontier_livestock_root","children":[1,2,3,4,5,6,7]},{"name":"body","mesh":0,"translation":[0,0.8,0],"scale":[1.3,0.7,1.8]},{"name":"head","mesh":1,"translation":[0,1.05,-1.2],"scale":[0.72,0.72,0.82]},{"name":"leg_fl","mesh":2,"translation":[-0.44,0.24,-0.62],"scale":[0.22,0.72,0.22]},{"name":"leg_fr","mesh":2,"translation":[0.44,0.24,-0.62],"scale":[0.22,0.72,0.22]},{"name":"leg_bl","mesh":2,"translation":[-0.44,0.24,0.62],"scale":[0.22,0.72,0.22]},{"name":"leg_br","mesh":2,"translation":[0.44,0.24,0.62],"scale":[0.22,0.72,0.22]},{"name":"tail","mesh":1,"translation":[0,0.92,1.18],"scale":[0.18,0.18,0.9]}],"meshes":[{"name":"cube_palette_0","primitives":[{"attributes":{"POSITION":0,"NORMAL":1},"indices":2,"material":0}]},{"name":"cube_palette_1","primitives":[{"attributes":{"POSITION":0,"NORMAL":1},"indices":2,"material":1}]},{"name":"cube_palette_2","primitives":[{"attributes":{"POSITION":0,"NORMAL":1},"indices":2,"material":2}]}],"materials":[{"name":"frontier_livestock_material_0","pbrMetallicRoughness":{"baseColorFactor":[0.5450980392156862,0.3568627450980392,0.23921568627450981,1],"metallicFactor":0.08,"roughnessFactor":0.72}},{"name":"frontier_livestock_material_1","pbrMetallicRoughness":{"baseColorFactor":[0.9058823529411765,0.8549019607843137,0.7529411764705882,1],"metallicFactor":0.08,"roughnessFactor":0.72}},{"name":"frontier_livestock_material_2","pbrMetallicRoughness":{"baseColorFactor":[0.30980392156862746,0.20784313725490197,0.14901960784313725,1],"metallicFactor":0.08,"roughnessFactor":0.72}}],"animations":[{"name":"idle","samplers":[{"input":3,"output":4,"interpolation":"LINEAR"},{"input":3,"output":5,"interpolation":"LINEAR"},{"input":3,"output":6,"interpolation":"LINEAR"},{"input":3,"output":7,"interpolation":"LINEAR"}],"channels":[{"sampler":0,"target":{"node":3,"path":"rotation"}},{"sampler":1,"target":{"node":4,"path":"rotation"}},{"sampler":2,"target":{"node":5,"path":"rotation"}},{"sampler":3,"target":{"node":6,"path":"rotation"}}]},{"name":"walk","samplers":[{"input":8,"output":9,"interpolation":"LINEAR"},{"input":8,"output":10,"interpolation":"LINEAR"},{"input":8,"output":11,"interpolation":"LINEAR"},{"input":8,"output":12,"interpolation":"LINEAR"}],"channels":[{"sampler":0,"target":{"node":3,"path":"rotation"}},{"sampler":1,"target":{"node":4,"path":"rotation"}},{"sampler":2,"target":{"node":5,"path":"rotation"}},{"sampler":3,"target":{"node":6,"path":"rotation"}}]},{"name":"run","samplers":[{"input":13,"output":14,"interpolation":"LINEAR"},{"input":13,"output":15,"interpolation":"LINEAR"},{"input":13,"output":16,"interpolation":"LINEAR"},{"input":13,"output":17,"interpolation":"LINEAR"}],"channels":[{"sampler":0,"target":{"node":3,"path":"rotation"}},{"sampler":1,"target":{"node":4,"path":"rotation"}},{"sampler":2,"target":{"node":5,"path":"rotation"}},{"sampler":3,"target":{"node":6,"path":"rotation"}}]},{"name":"attack","samplers":[{"input":18,"output":19,"interpolation":"LINEAR"},{"input":18,"output":20,"interpolation":"LINEAR"},{"input":18,"output":21,"interpolation":"LINEAR"},{"input":18,"output":22,"interpolation":"LINEAR"}],"channels":[{"sampler":0,"target":{"node":3,"path":"rotation"}},{"sampler":1,"target":{"node":4,"path":"rotation"}},{"sampler":2,"target":{"node":5,"path":"rotation"}},{"sampler":3,"target":{"node":6,"path":"rotation"}}]},{"name":"mine","samplers":[{"input":23,"output":24,"interpolation":"LINEAR"},{"input":23,"output":25,"interpolation":"LINEAR"},{"input":23,"output":26,"interpolation":"LINEAR"},{"input":23,"output":27,"interpolation":"LINEAR"}],"channels":[{"sampler":0,"target":{"node":3,"path":"rotation"}},{"sampler":1,"target":{"node":4,"path":"rotation"}},{"sampler":2,"target":{"node":5,"path":"rotation"}},{"sampler":3,"target":{"node":6,"path":"rotation"}}]},{"name":"build","samplers":[{"input":28,"output":29,"interpolation":"LINEAR"},{"input":28,"output":30,"interpolation":"LINEAR"},{"input":28,"output":31,"interpolation":"LINEAR"},{"input":28,"output":32,"interpolation":"LINEAR"}],"channels":[{"sampler":0,"target":{"node":3,"path":"rotation"}},{"sampler":1,"target":{"node":4,"path":"rotation"}},{"sampler":2,"target":{"node":5,"path":"rotation"}},{"sampler":3,"target":{"node":6,"path":"rotation"}}]},{"name":"hurt","samplers":[{"input":33,"output":34,"interpolation":"LINEAR"},{"input":33,"output":35,"interpolation":"LINEAR"},{"input":33,"output":36,"interpolation":"LINEAR"},{"input":33,"output":37,"interpolation":"LINEAR"}],"channels":[{"sampler":0,"target":{"node":3,"path":"rotation"}},{"sampler":1,"target":{"node":4,"path":"rotation"}},{"sampler":2,"target":{"node":5,"path":"rotation"}},{"sampler":3,"target":{"node":6,"path":"rotation"}}]},{"name":"death","samplers":[{"input":38,"output":39,"interpolation":"LINEAR"},{"input":38,"output":40,"interpolation":"LINEAR"},{"input":38,"output":41,"interpolation":"LINEAR"},{"input":38,"output":42,"interpolation":"LINEAR"}],"channels":[{"sampler":0,"target":{"node":3,"path":"rotation"}},{"sampler":1,"target":{"node":4,"path":"rotation"}},{"sampler":2,"target":{"node":5,"path":"rotation"}},{"sampler":3,"target":{"node":6,"path":"rotation"}}]}],"buffers":[{"uri":"data:application/octet-stream;base64,","byteLength":3368}],"bufferViews":[{"buffer":0,"byteOffset":0,"byteLength":288,"target":34962},{"buffer":0,"byteOffset":288,"byteLength":288,"target":34962},{"buffer":0,"byteOffset":576,"byteLength":72,"target":34963},{"buffer":0,"byteOffset":648,"byteLength":20},{"buffer":0,"byteOffset":668,"byteLength":80},{"buffer":0,"byteOffset":748,"byteLength":80},{"buffer":0,"byteOffset":828,"byteLength":80},{"buffer":0,"byteOffset":908,"byteLength":80},{"buffer":0,"byteOffset":988,"byteLength":20},{"buffer":0,"byteOffset":1008,"byteLength":80},{"buffer":0,"byteOffset":1088,"byteLength":80},{"buffer":0,"byteOffset":1168,"byteLength":80},{"buffer":0,"byteOffset":1248,"byteLength":80},{"buffer":0,"byteOffset":1328,"byteLength":20},{"buffer":0,"byteOffset":1348,"byteLength":80},{"buffer":0,"byteOffset":1428,"byteLength":80},{"buffer":0,"byteOffset":1508,"byteLength":80},{"buffer":0,"byteOffset":1588,"byteLength":80},{"buffer":0,"byteOffset":1668,"byteLength":20},{"buffer":0,"byteOffset":1688,"byteLength":80},{"buffer":0,"byteOffset":1768,"byteLength":80},{"buffer":0,"byteOffset":1848,"byteLength":80},{"buffer":0,"byteOffset":1928,"byteLength":80},{"buffer":0,"byteOffset":2008,"byteLength":20},{"buffer":0,"byteOffset":2028,"byteLength":80},{"buffer":0,"byteOffset":2108,"byteLength":80},{"buffer":0,"byteOffset":2188,"byteLength":80},{"buffer":0,"byteOffset":2268,"byteLength":80},{"buffer":0,"byteOffset":2348,"byteLength":20},{"buffer":0,"byteOffset":2368,"byteLength":80},{"buffer":0,"byteOffset":2448,"byteLength":80},{"buffer":0,"byteOffset":2528,"byteLength":80},{"buffer":0,"byteOffset":2608,"byteLength":80},{"buffer":0,"byteOffset":2688,"byteLength":20},{"buffer":0,"byteOffset":2708,"byteLength":80},{"buffer":0,"byteOffset":2788,"byteLength":80},{"buffer":0,"byteOffset":2868,"byteLength":80},{"buffer":0,"byteOffset":2948,"byteLength":80},{"buffer":0,"byteOffset":3028,"byteLength":20},{"buffer":0,"byteOffset":3048,"byteLength":80},{"buffer":0,"byteOffset":3128,"byteLength":80},{"buffer":0,"byteOffset":3208,"byteLength":80},{"buffer":0,"byteOffset":3288,"byteLength":80}],"accessors":[{"bufferView":0,"componentType":5126,"count":24,"type":"VEC3","min":[-0.5,-0.5,-0.5],"max":[0.5,0.5,0.5]},{"bufferView":1,"componentType":5126,"count":24,"type":"VEC3"},{"bufferView":2,"componentType":5123,"count":36,"type":"SCALAR"},{"bufferView":3,"componentType":5126,"count":5,"type":"SCALAR","min":[0],"max":[1]},{"bufferView":4,"componentType":5126,"count":5,"type":"VEC4"},{"bufferView":5,"componentType":5126,"count":5,"type":"VEC4"},{"bufferView":6,"componentType":5126,"count":5,"type":"VEC4"},{"bufferView":7,"componentType":5126,"count":5,"type":"VEC4"},{"bufferView":8,"componentType":5126,"count":5,"type":"SCALAR","min":[0],"max":[1]},{"bufferView":9,"componentType":5126,"count":5,"type":"VEC4"},{"bufferView":10,"componentType":5126,"count":5,"type":"VEC4"},{"bufferView":11,"componentType":5126,"count":5,"type":"VEC4"},{"bufferView":12,"componentType":5126,"count":5,"type":"VEC4"},{"bufferView":13,"componentType":5126,"count":5,"type":"SCALAR","min":[0],"max":[1]},{"bufferView":14,"componentType":5126,"count":5,"type":"VEC4"},{"bufferView":15,"componentType":5126,"count":5,"type":"VEC4"},{"bufferView":16,"componentType":5126,"count":5,"type":"VEC4"},{"bufferView":17,"componentType":5126,"count":5,"type":"VEC4"},{"bufferView":18,"componentType":5126,"count":5,"type":"SCALAR","min":[0],"max":[1]},{"bufferView":19,"componentType":5126,"count":5,"type":"VEC4"},{"bufferView":20,"componentType":5126,"count":5,"type":"VEC4"},{"bufferView":21,"componentType":5126,"count":5,"type":"VEC4"},{"bufferView":22,"componentType":5126,"count":5,"type":"VEC4"},{"bufferView":23,"componentType":5126,"count":5,"type":"SCALAR","min":[0],"max":[1]},{"bufferView":24,"componentType":5126,"count":5,"type":"VEC4"},{"bufferView":25,"componentType":5126,"count":5,"type":"VEC4"},{"bufferView":26,"componentType":5126,"count":5,"type":"VEC4"},{"bufferView":27,"componentType":5126,"count":5,"type":"VEC4"},{"bufferView":28,"componentType":5126,"count":5,"type":"SCALAR","min":[0],"max":[1]},{"bufferView":29,"componentType":5126,"count":5,"type":"VEC4"},{"bufferView":30,"componentType":5126,"count":5,"type":"VEC4"},{"bufferView":31,"componentType":5126,"count":5,"type":"VEC4"},{"bufferView":32,"componentType":5126,"count":5,"type":"VEC4"},{"bufferView":33,"componentType":5126,"count":5,"type":"SCALAR","min":[0],"max":[1]},{"bufferView":34,"componentType":5126,"count":5,"type":"VEC4"},{"bufferView":35,"componentType":5126,"count":5,"type":"VEC4"},{"bufferView":36,"componentType":5126,"count":5,"type":"VEC4"},{"bufferView":37,"componentType":5126,"count":5,"type":"VEC4"},{"bufferView":38,"componentType":5126,"count":5,"type":"SCALAR","min":[0],"max":[1]},{"bufferView":39,"componentType":5126,"count":5,"type":"VEC4"},{"bufferView":40,"componentType":5126,"count":5,"type":"VEC4"},{"bufferView":41,"componentType":5126,"count":5,"type":"VEC4"},{"bufferView":42,"componentType":5126,"count":5,"type":"VEC4"}],"extras":{"style":"original block-sculpted low-poly frontier fantasy","runtimeTarget":"Three.js / React Three Fiber","animationClips":["idle","walk","run","attack","mine","build","hurt","death"]}}